<svg width="47" height="45" fill="none" xmlns="http://www.w3.org/2000/svg"><path d="M3.416 26.846C4.876 26.796 6 26.5 6 26.5s-1.124-.296-2.584-.347C3.356 24.937 3 24 3 24s-.356.937-.417 2.153C1.124 26.204 0 26.5 0 26.5s1.123.296 2.584.346A7.797 7.797 0 0 0 3.001 29s.355-.936.415-2.154ZM9.554 30.554C11.501 30.474 13 30 13 30s-1.5-.473-3.446-.554C9.474 27.5 9 26 9 26s-.474 1.5-.554 3.446C6.499 29.526 5 30 5 30s1.5.473 3.446.554C8.526 32.5 9 34 9 34s.474-1.5.554-3.446ZM21.277 16.277C22.25 16.237 23 16 23 16s-.75-.237-1.723-.278A7.333 7.333 0 0 0 21 14s-.237.75-.277 1.722C19.75 15.763 19 16 19 16s.75.237 1.723.277C20.763 17.25 21 18 21 18s.237-.75.277-1.723ZM24.846 18.846C26.063 18.796 27 18.5 27 18.5s-.937-.296-2.154-.346A9.147 9.147 0 0 0 24.5 16s-.296.938-.346 2.154c-1.217.05-2.154.346-2.154.346s.937.296 2.154.346A9.18 9.18 0 0 0 24.5 21s.295-.937.346-2.154ZM9.448 11.044c-.37.105-.741.22-1.108.347.33-.184.668-.36 1.013-.53L7.865 8C4.646 11.392 2.62 15.586 2 20c1.56-3.283 4.3-6.112 8-7.894l-.552-1.062Z" fill="#1195FF"/><path d="M15.131 2.268A22.172 22.172 0 0 0 12 4.146l1.722 4.76c8.088-1.99 16.73 1.914 20.516 9.818 4.367 9.116.623 20.1-8.362 24.53-.526.259-1.058.49-1.595.693 4.83-2.982 7.856-7.983 8.529-13.386-1.2 4.278-4.122 8.04-8.375 10.138a15.69 15.69 0 0 1-10.992 1.108c5.489 3.324 12.296 4.186 18.63 1.955C40.607 38 43.845 26.583 39.24 16.969 34.508 7.093 23.188 2.644 13.252 6.418a20.836 20.836 0 0 1 1.752-.971c10.337-5.097 22.788-.728 27.811 9.76 4.843 10.109 1.014 22.212-8.527 27.636l.228-.11c11.013-5.43 15.601-18.892 10.248-30.065-5.353-11.175-18.62-15.83-29.633-10.4Z" fill="#1195FF"/><path d="M7.874 3.088c-.94.394-1.155 1.985-.482 3.556l9.31 19.277-1.37.571a.99.99 0 0 0 .078 1.86c1.338 4.5-2.119 10.32-3.305 12.132.943.245 1.896.402 2.85.475a12.576 12.576 0 0 0 2.68-8.553A12.518 12.518 0 0 1 16.54 41c1.5-.033 2.983-.274 4.408-.714.442-1.514.605-3.126.438-4.771a12.56 12.56 0 0 1 .386 4.492 16.038 16.038 0 0 0 3.508-1.809 12.57 12.57 0 0 0-2.673-8.044 12.6 12.6 0 0 1 3.896 7.117A16.016 16.016 0 0 0 29 34.651c-.28-3.148-5.349-6.972-8.063-8.624a.974.974 0 0 0 .013-.798 1.012 1.012 0 0 0-1.317-.53l-1.397.581-7.443-20.06c-.672-1.57-1.98-2.525-2.918-2.132Z" fill="#292929"/></svg>